<?xml version="1.0" encoding="UTF-8"?>
<svg width="512" height="512" viewBox="-2.1 0 31.3 31.3" xmlns="http://www.w3.org/2000/svg">
  <!-- White inner diamond fill (matches inner cutout of blue outline) -->
  <path
    fill="#ffffff"
    d="M26.022 22.885 L13.551 30.085 1.08 22.885 V8.483 l12.471-7.199 12.471 7.199z" />

  <!-- Blue diamond outline -->
  <path
    fill="#0f4678"
    d="M26.022 7.2 L15.776 1.284 13.551 0 11.327 1.284 1.08 7.2 0 7.824 v15.648 l1.08 0.624 10.375 5.989 2.097 1.211 2.097-1.211 10.374-5.989 1.081-0.624 V7.824z
       M26.022 22.885 L13.551 30.085 1.08 22.885 V8.483 l12.471-7.199 12.471 7.199z" />

  <!-- Accent color dots (red, yellow, teal) -->
  <circle cx="4.1" cy="9.1" r="0.7" fill="#cb4543"/>
  <circle cx="5.9" cy="8.0" r="0.7" fill="#eba921"/>
  <circle cx="7.7" cy="6.9" r="0.7" fill="#9dcfca"/>

  <!-- TSS text centered -->
  <text
    x="13.551"
    y="17.7"
    font-family="'Helvetica Neue', Arial, sans-serif"
    font-size="5.28"
    font-weight="bold"
    text-anchor="middle"
    dominant-baseline="middle"
    fill="#284f77">TSS</text>
</svg>
