<?xml version="1.0" encoding="UTF-8"?>
<svg width="512" height="512" viewBox="-2.1 0 31.3 31.3"
     xmlns="http://www.w3.org/2000/svg">
    <!-- White inner diamond fill -->
    <path fill="#ffffff" d="M26.022 22.885 L13.551 30.085 1.08 22.885 V8.483 l12.471-7.199 12.471 7.199z"/>
    <!-- Blue diamond outline -->
    <path fill="#144678" d="M26.022 7.2 L15.776 1.284 13.551 0 11.327 1.284 1.08 7.2 0 7.824 v15.648 l1.08 0.624 10.375 5.989 2.097 1.211 2.097-1.211 10.374-5.989 1.081-0.624 V7.824z M26.022 22.885 L13.551 30.085 1.08 22.885 V8.483 l12.471-7.199 12.471 7.199z"/>
    <!-- Accent dots (red, yellow, teal) - aligned parallel to diamond edge -->
    <circle cx="4.1" cy="9.04" r="0.7" fill="#cb4544"/>
    <circle cx="5.9" cy="8.0" r="0.7" fill="#edaa00"/>
    <circle cx="7.7" cy="6.96" r="0.7" fill="#a1d0ca"/>
    <!-- TSS text (converted to paths for font independence) -->
    <path fill="#144678" d="M 9.6515854,19.068985 V 15.928829 H 8.530101 v -0.639375 h 3.003516 v 0.639375 H 10.41471 v 3.140156 z m 2.1810936,-1.229765 0.7425,-0.07219 q 0.06703,0.373828 0.270703,0.549141 0.20625,0.175312 0.554297,0.175312 0.368672,0 0.554297,-0.154687 0.188203,-0.157266 0.188203,-0.366094 0,-0.134063 -0.07992,-0.226875 -0.07734,-0.09539 -0.273281,-0.165 -0.134062,-0.04641 -0.611015,-0.165 -0.613594,-0.152109 -0.861094,-0.373828 -0.348047,-0.311953 -0.348047,-0.760547 0,-0.28875 0.162422,-0.538828 0.165,-0.252657 0.471797,-0.384141 0.309375,-0.131484 0.745078,-0.131484 0.711562,0 1.069922,0.311953 0.360937,0.311953 0.378984,0.832734 l -0.763125,0.03352 q -0.04898,-0.291328 -0.211406,-0.417656 -0.159844,-0.128907 -0.48211,-0.128907 -0.332578,0 -0.520781,0.136641 -0.121172,0.08766 -0.121172,0.234609 0,0.134063 0.113438,0.229453 0.144375,0.121172 0.70125,0.252657 0.556875,0.131484 0.822422,0.273281 0.268125,0.139219 0.417656,0.384141 0.152109,0.242343 0.152109,0.600703 0,0.324844 -0.180468,0.608437 -0.180469,0.283594 -0.510469,0.422813 -0.33,0.13664 -0.822422,0.13664 -0.716719,0 -1.100859,-0.33 -0.384141,-0.332578 -0.458907,-0.966796 z m 3.521719,0 0.7425,-0.07219 q 0.06703,0.373828 0.270703,0.549141 0.20625,0.175312 0.554297,0.175312 0.368672,0 0.554297,-0.154687 0.188203,-0.157266 0.188203,-0.366094 0,-0.134063 -0.07992,-0.226875 -0.07734,-0.09539 -0.273281,-0.165 -0.134062,-0.04641 -0.611015,-0.165 -0.613594,-0.152109 -0.861094,-0.373828 -0.348047,-0.311953 -0.348047,-0.760547 0,-0.28875 0.162422,-0.538828 0.165,-0.252657 0.471797,-0.384141 0.309375,-0.131484 0.745078,-0.131484 0.711562,0 1.069922,0.311953 0.360937,0.311953 0.378984,0.832734 l -0.763125,0.03352 q -0.04898,-0.291328 -0.211406,-0.417656 -0.159844,-0.128907 -0.48211,-0.128907 -0.332578,0 -0.520781,0.136641 -0.121172,0.08766 -0.121172,0.234609 0,0.134063 0.113438,0.229453 0.144375,0.121172 0.70125,0.252657 0.556875,0.131484 0.822422,0.273281 0.268125,0.139219 0.417656,0.384141 0.152109,0.242343 0.152109,0.600703 0,0.324844 -0.180468,0.608437 -0.180469,0.283594 -0.510469,0.422813 -0.33,0.13664 -0.822422,0.13664 -0.716719,0 -1.100859,-0.33 -0.384141,-0.332578 -0.458907,-0.966796 z"/>
</svg>
